<?xml version="1.0" standalone="no"?><!DOCTYPE svg PUBLIC "-//W3C//DTD SVG 1.1//EN" "http://www.w3.org/Graphics/SVG/1.1/DTD/svg11.dtd"><svg t="1569467220520" class="icon" viewBox="0 0 1024 1024" version="1.1" xmlns="http://www.w3.org/2000/svg" p-id="2452" xmlns:xlink="http://www.w3.org/1999/xlink" width="32" height="32"><defs><style type="text/css"></style></defs><path d="M769.220293 1003.981061 589.406974 1003.981061 589.406974 812.079426c0-14.054087-11.42726-25.487487-25.474185-25.487487L472.965985 786.591939c-14.044878 0-25.470091 11.4334-25.470091 25.487487l0 191.901635L253.30103 1003.981061c-53.512774 0-97.048313-43.523259-97.048313-97.020684L156.252717 590.010725 46.660716 555.834344l-8.749268-8.719592c-25.91216-25.914206-25.913183-68.043722-0.029676-93.939509L467.406362 23.543206c12.539594-12.542664 29.208229-19.449981 46.938032-19.449981s34.397415 6.907317 46.935985 19.451004l429.528684 429.633061c12.545734 12.55392 19.445888 29.239951 19.430538 46.987151-0.016373 17.743106-6.944156 34.415834-19.509333 46.946218l-8.815783 8.826016-115.702162 34.299177 0 316.727595C866.211301 960.457802 822.701344 1003.981061 769.220293 1003.981061zM630.339222 963.048813l138.881071 0c30.91101 0 56.05876-25.161053 56.05876-56.088436L825.279053 559.674812l135.027299-40.026622 1.490957-1.493004c4.846378-4.834098 7.503904-11.225669 7.510044-18.026562 0.005117-6.804986-2.64013-13.20372-7.450692-18.017352L532.333094 52.483328c-4.807493-4.809539-11.195993-7.457856-17.9887-7.457856-6.79373 0-13.18223 2.648316-17.990746 7.457856L66.831105 482.113319c-9.931187 9.936303-9.93221 26.101471-0.001023 36.033681l1.607614 1.601474 128.747269 40.149419 0 347.062484c0 30.927383 25.174356 56.088436 56.116065 56.088436L406.563646 963.048813 406.563646 812.079426c0-36.624129 29.78742-66.419735 66.402339-66.419735l90.967828 0c36.615942 0 66.406432 29.795607 66.406432 66.419735L630.340245 963.048813z" p-id="2453" fill="#ffffff"></path></svg>